<svg xmlns="http://www.w3.org/2000/svg" xmlns:xlink="http://www.w3.org/1999/xlink" width="851" zoomAndPan="magnify" viewBox="0 0 638.25 236.249991" height="315" preserveAspectRatio="xMidYMid meet" version="1.0"><defs><clipPath id="10262ebac5"><path d="M 227.640625 61.972656 L 324.414062 61.972656 L 324.414062 154.757812 L 227.640625 154.757812 Z M 227.640625 61.972656 " clip-rule="nonzero"/></clipPath><clipPath id="155302ffbd"><path d="M 262.277344 61.972656 L 289.75 61.972656 C 308.878906 61.972656 324.386719 77.480469 324.386719 96.609375 L 324.386719 120.121094 C 324.386719 139.253906 308.878906 154.757812 289.75 154.757812 L 262.277344 154.757812 C 243.148438 154.757812 227.640625 139.253906 227.640625 120.121094 L 227.640625 96.609375 C 227.640625 77.480469 243.148438 61.972656 262.277344 61.972656 Z M 262.277344 61.972656 " clip-rule="nonzero"/></clipPath><clipPath id="3ee0b55338"><path d="M 262.277344 61.972656 L 289.75 61.972656 C 308.878906 61.972656 324.386719 77.480469 324.386719 96.609375 L 324.386719 120.121094 C 324.386719 139.253906 308.878906 154.757812 289.75 154.757812 L 262.277344 154.757812 C 243.148438 154.757812 227.640625 139.253906 227.640625 120.121094 L 227.640625 96.609375 C 227.640625 77.480469 243.148438 61.972656 262.277344 61.972656 Z M 262.277344 61.972656 " clip-rule="nonzero"/></clipPath><clipPath id="d7d7814056"><path d="M 159.394531 62 L 324 62 L 324 173.710938 L 159.394531 173.710938 Z M 159.394531 62 " clip-rule="nonzero"/></clipPath></defs><path fill="#efeeeb" d="M 36.75 168.765625 L 36.75 44.496094 L 104 44.496094 L 104 122.621094 L 131.410156 122.621094 L 131.410156 168.765625 Z M 36.75 168.765625 " fill-opacity="1" fill-rule="nonzero"/><path fill="#efeeeb" d="M 135.433594 44.496094 L 202.683594 44.496094 L 202.683594 168.765625 L 135.433594 168.765625 Z M 135.433594 44.496094 " fill-opacity="1" fill-rule="nonzero"/><path fill="#efeeeb" d="M 278.515625 172.332031 C 254.761719 172.332031 236.824219 166.882812 224.699219 155.976562 C 212.578125 145.074219 206.515625 128.933594 206.515625 107.546875 L 206.515625 105.71875 C 206.515625 84.277344 212.578125 68.105469 224.699219 57.203125 C 236.824219 46.300781 254.761719 40.847656 278.515625 40.847656 C 301.789062 40.847656 319.378906 45.386719 331.285156 54.460938 C 343.195312 63.539062 349.183594 77 349.246094 94.84375 L 349.246094 95.304688 L 281.078125 95.117188 L 281.078125 89.914062 C 281.078125 88.148438 280.195312 87.265625 278.429688 87.265625 C 276.605469 87.265625 275.691406 88.148438 275.691406 89.914062 L 275.691406 131.03125 C 275.691406 132.921875 276.632812 133.804688 278.515625 133.679688 C 279.433594 133.679688 280.4375 133.433594 281.53125 132.949219 L 281.53125 129.023438 L 278.792969 129.023438 L 278.886719 99.507812 L 349.605469 99.507812 L 349.605469 158.261719 C 340.777344 162.890625 330.359375 166.390625 318.355469 168.765625 C 306.359375 171.144531 293.078125 172.332031 278.515625 172.332031 Z M 278.515625 172.332031 " fill-opacity="1" fill-rule="nonzero"/><path fill="#efeeeb" d="M 354.089844 168.765625 L 354.089844 44.496094 L 419.511719 44.496094 L 419.511719 86.074219 L 424.621094 86.074219 L 424.621094 44.496094 L 490.230469 44.496094 L 490.230469 168.765625 L 424.621094 168.765625 L 424.621094 128.566406 L 419.511719 128.566406 L 419.511719 168.765625 Z M 354.089844 168.765625 " fill-opacity="1" fill-rule="nonzero"/><path fill="#efeeeb" d="M 514.632812 168.765625 L 514.632812 92.101562 L 493.613281 92.101562 L 493.613281 44.496094 L 602.261719 44.496094 L 602.261719 92.101562 L 581.515625 92.101562 L 581.515625 168.765625 Z M 514.632812 168.765625 " fill-opacity="1" fill-rule="nonzero"/><g clip-path="url(#10262ebac5)"><g clip-path="url(#155302ffbd)"><g clip-path="url(#3ee0b55338)"><path fill="#efeeeb" d="M 227.640625 61.972656 L 324.414062 61.972656 L 324.414062 154.757812 L 227.640625 154.757812 Z M 227.640625 61.972656 " fill-opacity="1" fill-rule="nonzero"/></g></g></g><g clip-path="url(#d7d7814056)"><path fill="#ff3b3b" d="M 323.757812 85.304688 L 323.625 85.097656 C 313.683594 70.214844 295.128906 63.660156 278.328125 68.289062 C 278.292969 68.207031 278.277344 68.117188 278.222656 68.042969 L 274.667969 62.714844 C 274.25 62.089844 273.40625 61.921875 272.777344 62.339844 L 253.550781 75.183594 C 252.921875 75.601562 252.753906 76.445312 253.171875 77.074219 L 254.003906 78.316406 L 175.292969 130.890625 C 173.617188 129.152344 171.273438 128.0625 168.675781 128.0625 C 163.609375 128.0625 159.484375 132.1875 159.484375 137.253906 C 159.484375 142.320312 163.609375 146.445312 168.675781 146.445312 C 168.808594 146.445312 168.9375 146.429688 169.066406 146.425781 L 198.0625 267.628906 C 180.558594 267.890625 165.667969 271.6875 160.660156 277.261719 C 159.554688 278.496094 159.554688 280.097656 160.664062 281.34375 C 160.921875 281.636719 161.292969 281.800781 161.683594 281.800781 L 238.28125 281.800781 C 238.667969 281.800781 239.042969 281.636719 239.300781 281.34375 C 240.40625 280.097656 240.40625 278.496094 239.304688 277.261719 C 234.265625 271.652344 219.214844 267.839844 201.566406 267.625 L 172.390625 145.652344 C 175.609375 144.222656 177.867188 141 177.867188 137.253906 C 177.867188 136.007812 177.613281 134.820312 177.164062 133.738281 L 255.898438 81.15625 L 256.730469 82.398438 C 256.78125 82.476562 256.84375 82.539062 256.90625 82.605469 C 246.199219 96.351562 245.15625 115.992188 255.089844 130.867188 L 255.308594 131.175781 C 255.574219 131.558594 255.996094 131.765625 256.433594 131.765625 C 256.695312 131.765625 256.957031 131.691406 257.191406 131.535156 L 323.4375 87.289062 C 324.0625 86.875 324.164062 85.929688 323.757812 85.304688 Z M 170.554688 143.40625 C 170.40625 143.402344 170.253906 143.386719 170.101562 143.421875 C 169.949219 143.460938 169.820312 143.539062 169.6875 143.613281 C 169.359375 143.667969 169.023438 143.71875 168.675781 143.71875 C 165.113281 143.71875 162.214844 140.816406 162.214844 137.253906 C 162.214844 133.691406 165.113281 130.792969 168.675781 130.792969 C 172.238281 130.792969 175.136719 133.691406 175.136719 137.253906 C 175.136719 140.160156 173.199219 142.597656 170.554688 143.40625 Z M 168.675781 133.785156 C 166.761719 133.785156 165.207031 135.339844 165.207031 137.253906 C 165.207031 139.171875 166.761719 140.722656 168.675781 140.722656 C 170.59375 140.722656 172.144531 139.171875 172.144531 137.253906 C 172.144531 135.339844 170.59375 133.785156 168.675781 133.785156 Z M 168.675781 133.785156 " fill-opacity="1" fill-rule="nonzero"/></g><path fill="#efeeeb" d="M 37.878906 176.691406 L 41 176.691406 L 41 203.484375 L 57.507812 203.484375 L 57.507812 206.183594 L 37.878906 206.183594 Z M 37.878906 176.691406 " fill-opacity="1" fill-rule="nonzero"/><path fill="#efeeeb" d="M 85.398438 198.304688 L 68.964844 198.304688 L 65.425781 206.183594 L 62.1875 206.183594 L 75.664062 176.691406 L 78.742188 176.691406 L 92.21875 206.183594 L 88.9375 206.183594 Z M 84.265625 195.78125 L 77.1875 179.941406 L 70.109375 195.78125 Z M 84.265625 195.78125 " fill-opacity="1" fill-rule="nonzero"/><path fill="#efeeeb" d="M 119.898438 190.976562 C 121.832031 191.398438 123.328125 192.230469 124.382812 193.488281 C 125.433594 194.738281 125.960938 196.34375 125.960938 198.304688 C 125.960938 200.832031 125.027344 202.777344 123.164062 204.136719 C 121.292969 205.5 118.535156 206.183594 114.882812 206.183594 L 101.316406 206.183594 L 101.316406 176.691406 L 114.039062 176.691406 C 117.324219 176.691406 119.875 177.355469 121.683594 178.675781 C 123.492188 179.996094 124.398438 181.863281 124.398438 184.277344 C 124.398438 185.90625 123.996094 187.289062 123.195312 188.425781 C 122.398438 189.566406 121.300781 190.417969 119.898438 190.976562 Z M 104.4375 179.261719 L 104.4375 189.964844 L 113.832031 189.964844 C 116.214844 189.964844 118.054688 189.507812 119.347656 188.597656 C 120.640625 187.683594 121.289062 186.355469 121.289062 184.613281 C 121.289062 182.875 120.640625 181.546875 119.347656 180.636719 C 118.054688 179.722656 116.214844 179.261719 113.832031 179.261719 Z M 114.839844 203.613281 C 117.476562 203.613281 119.46875 203.164062 120.816406 202.265625 C 122.167969 201.367188 122.84375 199.964844 122.84375 198.054688 C 122.84375 194.375 120.175781 192.53125 114.839844 192.53125 L 104.4375 192.53125 L 104.4375 203.613281 Z M 114.839844 203.613281 " fill-opacity="1" fill-rule="nonzero"/></svg>