<svg xmlns="http://www.w3.org/2000/svg" xmlns:xlink="http://www.w3.org/1999/xlink" width="851" zoomAndPan="magnify" viewBox="0 0 638.25 236.249991" height="315" preserveAspectRatio="xMidYMid meet" version="1.0"><defs><clipPath id="85780c7835"><path d="M 227.582031 61.882812 L 324.339844 61.882812 L 324.339844 154.652344 L 227.582031 154.652344 Z M 227.582031 61.882812 " clip-rule="nonzero"/></clipPath><clipPath id="c66eb25942"><path d="M 262.214844 61.882812 L 289.683594 61.882812 C 308.808594 61.882812 324.3125 77.386719 324.3125 96.511719 L 324.3125 120.023438 C 324.3125 139.148438 308.808594 154.652344 289.683594 154.652344 L 262.214844 154.652344 C 243.089844 154.652344 227.582031 139.148438 227.582031 120.023438 L 227.582031 96.511719 C 227.582031 77.386719 243.089844 61.882812 262.214844 61.882812 Z M 262.214844 61.882812 " clip-rule="nonzero"/></clipPath><clipPath id="8c4e446f3c"><path d="M 262.214844 61.882812 L 289.683594 61.882812 C 308.808594 61.882812 324.3125 77.386719 324.3125 96.511719 L 324.3125 120.023438 C 324.3125 139.148438 308.808594 154.652344 289.683594 154.652344 L 262.214844 154.652344 C 243.089844 154.652344 227.582031 139.148438 227.582031 120.023438 L 227.582031 96.511719 C 227.582031 77.386719 243.089844 61.882812 262.214844 61.882812 Z M 262.214844 61.882812 " clip-rule="nonzero"/></clipPath><clipPath id="28389d6285"><path d="M 159.34375 62 L 324 62 L 324 173.601562 L 159.34375 173.601562 Z M 159.34375 62 " clip-rule="nonzero"/></clipPath></defs><path fill="#070603" d="M 36.71875 168.660156 L 36.71875 44.40625 L 103.957031 44.40625 L 103.957031 122.523438 L 131.363281 122.523438 L 131.363281 168.660156 Z M 36.71875 168.660156 " fill-opacity="1" fill-rule="nonzero"/><path fill="#070603" d="M 135.386719 44.40625 L 202.628906 44.40625 L 202.628906 168.660156 L 135.386719 168.660156 Z M 135.386719 44.40625 " fill-opacity="1" fill-rule="nonzero"/><path fill="#070603" d="M 278.449219 172.226562 C 254.699219 172.226562 236.761719 166.773438 224.644531 155.871094 C 212.519531 144.96875 206.460938 128.832031 206.460938 107.449219 L 206.460938 105.621094 C 206.460938 84.183594 212.519531 68.011719 224.644531 57.109375 C 236.761719 46.210938 254.699219 40.757812 278.449219 40.757812 C 301.71875 40.757812 319.308594 45.296875 331.210938 54.371094 C 343.121094 63.445312 349.105469 76.90625 349.171875 94.746094 L 349.171875 95.210938 L 281.011719 95.019531 L 281.011719 89.816406 C 281.011719 88.054688 280.128906 87.171875 278.363281 87.171875 C 276.539062 87.171875 275.625 88.054688 275.625 89.816406 L 275.625 130.929688 C 275.625 132.820312 276.566406 133.703125 278.449219 133.574219 C 279.367188 133.574219 280.371094 133.332031 281.464844 132.84375 L 281.464844 128.921875 L 278.726562 128.921875 L 278.820312 99.410156 L 349.53125 99.410156 L 349.53125 158.15625 C 340.703125 162.785156 330.285156 166.285156 318.285156 168.660156 C 306.289062 171.035156 293.011719 172.226562 278.449219 172.226562 Z M 278.449219 172.226562 " fill-opacity="1" fill-rule="nonzero"/><path fill="#070603" d="M 354.015625 168.660156 L 354.015625 44.40625 L 419.425781 44.40625 L 419.425781 85.976562 L 424.535156 85.976562 L 424.535156 44.40625 L 490.136719 44.40625 L 490.136719 168.660156 L 424.535156 168.660156 L 424.535156 128.464844 L 419.425781 128.464844 L 419.425781 168.660156 Z M 354.015625 168.660156 " fill-opacity="1" fill-rule="nonzero"/><path fill="#070603" d="M 514.535156 168.660156 L 514.535156 92.007812 L 493.519531 92.007812 L 493.519531 44.40625 L 602.148438 44.40625 L 602.148438 92.007812 L 581.40625 92.007812 L 581.40625 168.660156 Z M 514.535156 168.660156 " fill-opacity="1" fill-rule="nonzero"/><g clip-path="url(#85780c7835)"><g clip-path="url(#c66eb25942)"><g clip-path="url(#8c4e446f3c)"><path fill="#070603" d="M 227.582031 61.882812 L 324.339844 61.882812 L 324.339844 154.652344 L 227.582031 154.652344 Z M 227.582031 61.882812 " fill-opacity="1" fill-rule="nonzero"/></g></g></g><g clip-path="url(#28389d6285)"><path fill="#ff3b3b" d="M 323.683594 85.207031 L 323.554688 85 C 313.613281 70.121094 295.0625 63.566406 278.261719 68.195312 C 278.226562 68.113281 278.210938 68.023438 278.160156 67.949219 L 274.601562 62.625 C 274.1875 61.996094 273.339844 61.828125 272.714844 62.25 L 253.488281 75.089844 C 252.859375 75.507812 252.691406 76.351562 253.109375 76.980469 L 253.941406 78.222656 L 175.238281 130.789062 C 173.566406 129.050781 171.222656 127.960938 168.625 127.960938 C 163.558594 127.960938 159.4375 132.085938 159.4375 137.152344 C 159.4375 142.21875 163.558594 146.339844 168.625 146.339844 C 168.757812 146.339844 168.886719 146.328125 169.015625 146.320312 L 198.007812 267.507812 C 180.503906 267.769531 165.617188 271.566406 160.609375 277.140625 C 159.503906 278.371094 159.507812 279.972656 160.613281 281.222656 C 160.875 281.511719 161.246094 281.679688 161.632812 281.679688 L 238.222656 281.679688 C 238.609375 281.679688 238.980469 281.511719 239.242188 281.222656 C 240.347656 279.976562 240.347656 278.375 239.242188 277.140625 C 234.207031 271.53125 219.15625 267.71875 201.511719 267.503906 L 172.339844 145.550781 C 175.558594 144.121094 177.8125 140.898438 177.8125 137.152344 C 177.8125 135.90625 177.5625 134.71875 177.113281 133.636719 L 255.835938 81.058594 L 256.667969 82.304688 C 256.71875 82.378906 256.78125 82.445312 256.84375 82.507812 C 246.140625 96.253906 245.097656 115.894531 255.027344 130.765625 L 255.246094 131.074219 C 255.511719 131.457031 255.933594 131.664062 256.371094 131.664062 C 256.628906 131.664062 256.894531 131.589844 257.125 131.433594 L 323.367188 87.195312 C 323.988281 86.777344 324.09375 85.832031 323.683594 85.207031 Z M 170.503906 143.300781 C 170.355469 143.296875 170.203125 143.28125 170.050781 143.320312 C 169.898438 143.355469 169.769531 143.4375 169.636719 143.511719 C 169.308594 143.5625 168.972656 143.613281 168.625 143.613281 C 165.0625 143.613281 162.164062 140.714844 162.164062 137.152344 C 162.164062 133.589844 165.0625 130.6875 168.625 130.6875 C 172.1875 130.6875 175.085938 133.589844 175.085938 137.152344 C 175.085938 140.058594 173.148438 142.492188 170.503906 143.300781 Z M 168.625 133.683594 C 166.710938 133.683594 165.160156 135.238281 165.160156 137.152344 C 165.160156 139.066406 166.710938 140.621094 168.625 140.621094 C 170.542969 140.621094 172.09375 139.066406 172.09375 137.152344 C 172.09375 135.238281 170.542969 133.683594 168.625 133.683594 Z M 168.625 133.683594 " fill-opacity="1" fill-rule="nonzero"/></g><path fill="#070603" d="M 37.847656 176.585938 L 40.964844 176.585938 L 40.964844 203.371094 L 57.472656 203.371094 L 57.472656 206.070312 L 37.847656 206.070312 Z M 37.847656 176.585938 " fill-opacity="1" fill-rule="nonzero"/><path fill="#070603" d="M 85.359375 198.195312 L 68.929688 198.195312 L 65.390625 206.070312 L 62.152344 206.070312 L 75.628906 176.585938 L 78.703125 176.585938 L 92.179688 206.070312 L 88.898438 206.070312 Z M 84.226562 195.667969 L 77.148438 179.832031 L 70.070312 195.667969 Z M 84.226562 195.667969 " fill-opacity="1" fill-rule="nonzero"/><path fill="#070603" d="M 119.855469 190.867188 C 121.789062 191.285156 123.285156 192.121094 124.335938 193.375 C 125.390625 194.625 125.917969 196.230469 125.917969 198.195312 C 125.917969 200.71875 124.984375 202.664062 123.117188 204.027344 C 121.25 205.390625 118.492188 206.070312 114.839844 206.070312 L 101.277344 206.070312 L 101.277344 176.585938 L 113.996094 176.585938 C 117.28125 176.585938 119.832031 177.246094 121.640625 178.570312 C 123.449219 179.886719 124.355469 181.753906 124.355469 184.167969 C 124.355469 185.796875 123.953125 187.179688 123.152344 188.316406 C 122.355469 189.457031 121.257812 190.308594 119.855469 190.867188 Z M 104.394531 179.152344 L 104.394531 189.855469 L 113.789062 189.855469 C 116.171875 189.855469 118.011719 189.398438 119.304688 188.488281 C 120.597656 187.574219 121.246094 186.246094 121.246094 184.503906 C 121.246094 182.765625 120.597656 181.4375 119.304688 180.527344 C 118.011719 179.613281 116.171875 179.152344 113.789062 179.152344 Z M 114.796875 203.5 C 117.433594 203.5 119.425781 203.054688 120.773438 202.152344 C 122.125 201.257812 122.800781 199.851562 122.800781 197.945312 C 122.800781 194.265625 120.132812 192.421875 114.796875 192.421875 L 104.394531 192.421875 L 104.394531 203.5 Z M 114.796875 203.5 " fill-opacity="1" fill-rule="nonzero"/></svg>